{
	"asset":{
		"generator":"Khronos glTF Blender I/O v4.5.47",
		"version":"2.0"
	},
	"scene":0,
	"scenes":[
		{
			"name":"Scene",
			"nodes":[
				0
			]
		}
	],
	"nodes":[
		{
			"mesh":0,
			"name":"door",
			"rotation":[
				0,
				0,
				-0.7071068286895752,
				0.7071068286895752
			],
			"translation":[
				23.458574295043945,
				1.8606243133544922,
				23.14133644104004
			]
		}
	],
	"materials":[
		{
			"doubleSided":true,
			"name":"old_door",
			"pbrMetallicRoughness":{
				"baseColorTexture":{
					"index":0
				},
				"metallicFactor":0,
				"roughnessFactor":0.5
			}
		},
		{
			"doubleSided":true,
			"name":"Metal",
			"pbrMetallicRoughness":{
				"roughnessFactor":0.043806642293930054
			}
		}
	],
	"meshes":[
		{
			"name":"Circle.007",
			"primitives":[
				{
					"attributes":{
						"POSITION":0,
						"NORMAL":1,
						"TEXCOORD_0":2
					},
					"indices":3,
					"material":0
				},
				{
					"attributes":{
						"POSITION":4,
						"NORMAL":5,
						"TEXCOORD_0":6
					},
					"indices":7,
					"material":1
				}
			]
		}
	],
	"textures":[
		{
			"sampler":0,
			"source":0
		}
	],
	"images":[
		{
			"mimeType":"image/png",
			"name":"vintage-pine-floorboards",
			"uri":"vintage-pine-floorboards.png"
		}
	],
	"accessors":[
		{
			"bufferView":0,
			"componentType":5126,
			"count":274,
			"max":[
				5.798712066074074e-10,
				0.009999686852097511,
				0.00014865398406982422
			],
			"min":[
				-8.448514938354492,
				-0.10141563415527344,
				-2.9639852046966553
			],
			"type":"VEC3"
		},
		{
			"bufferView":1,
			"componentType":5126,
			"count":274,
			"type":"VEC3"
		},
		{
			"bufferView":2,
			"componentType":5126,
			"count":274,
			"type":"VEC2"
		},
		{
			"bufferView":3,
			"componentType":5123,
			"count":480,
			"type":"SCALAR"
		},
		{
			"bufferView":4,
			"componentType":5126,
			"count":1274,
			"max":[
				-3.0739500522613525,
				-0.06401798129081726,
				-2.3054261207580566
			],
			"min":[
				-3.4678776264190674,
				-0.14280346035957336,
				-2.6993536949157715
			],
			"type":"VEC3"
		},
		{
			"bufferView":5,
			"componentType":5126,
			"count":1274,
			"type":"VEC3"
		},
		{
			"bufferView":6,
			"componentType":5126,
			"count":1274,
			"type":"VEC2"
		},
		{
			"bufferView":7,
			"componentType":5123,
			"count":6912,
			"type":"SCALAR"
		}
	],
	"bufferViews":[
		{
			"buffer":0,
			"byteLength":3288,
			"byteOffset":0,
			"target":34962
		},
		{
			"buffer":0,
			"byteLength":3288,
			"byteOffset":3288,
			"target":34962
		},
		{
			"buffer":0,
			"byteLength":2192,
			"byteOffset":6576,
			"target":34962
		},
		{
			"buffer":0,
			"byteLength":960,
			"byteOffset":8768,
			"target":34963
		},
		{
			"buffer":0,
			"byteLength":15288,
			"byteOffset":9728,
			"target":34962
		},
		{
			"buffer":0,
			"byteLength":15288,
			"byteOffset":25016,
			"target":34962
		},
		{
			"buffer":0,
			"byteLength":10192,
			"byteOffset":40304,
			"target":34962
		},
		{
			"buffer":0,
			"byteLength":13824,
			"byteOffset":50496,
			"target":34963
		}
	],
	"samplers":[
		{
			"magFilter":9728,
			"minFilter":9984
		}
	],
	"buffers":[
		{
			"byteLength":64320,
			"uri":"mausoleum_door.bin"
		}
	]
}
