{
	"asset":{
		"generator":"Khronos glTF Blender I/O v4.5.47",
		"version":"2.0"
	},
	"scene":0,
	"scenes":[
		{
			"extras":{
				"other_props":{},
				"bout":{
					"update":0
				},
				"NWBusyDrawing":"",
				"NWLazySource":"Principled BSDF",
				"NWLazyTarget":"Principled BSDF.001"
			},
			"name":"Scene",
			"nodes":[
				0
			]
		}
	],
	"nodes":[
		{
			"extras":{
				"ant_landscape":{}
			},
			"mesh":0,
			"name":"worm",
			"rotation":[
				0,
				0.8514455556869507,
				0,
				0.5244429707527161
			],
			"translation":[
				-20.36613655090332,
				1.098054051399231,
				-13.197907447814941
			]
		}
	],
	"animations":[
		{
			"channels":[
				{
					"sampler":0,
					"target":{
						"node":0,
						"path":"translation"
					}
				},
				{
					"sampler":1,
					"target":{
						"node":0,
						"path":"rotation"
					}
				},
				{
					"sampler":2,
					"target":{
						"node":0,
						"path":"weights"
					}
				}
			],
			"name":"MoveUp",
			"samplers":[
				{
					"input":6,
					"interpolation":"LINEAR",
					"output":7
				},
				{
					"input":6,
					"interpolation":"LINEAR",
					"output":8
				},
				{
					"input":9,
					"interpolation":"LINEAR",
					"output":10
				}
			]
		}
	],
	"materials":[
		{
			"doubleSided":true,
			"name":"worm",
			"pbrMetallicRoughness":{
				"baseColorTexture":{
					"index":0
				},
				"metallicFactor":0
			}
		}
	],
	"meshes":[
		{
			"extras":{
				"targetNames":[
					"Key 1"
				]
			},
			"name":"Cube.003",
			"primitives":[
				{
					"attributes":{
						"POSITION":0,
						"NORMAL":1,
						"TEXCOORD_0":2
					},
					"indices":3,
					"material":0,
					"targets":[
						{
							"POSITION":4,
							"NORMAL":5
						}
					]
				}
			],
			"weights":[
				0
			]
		}
	],
	"textures":[
		{
			"sampler":0,
			"source":0
		}
	],
	"images":[
		{
			"mimeType":"image/png",
			"name":"jumping-worm-pixel",
			"uri":"jumping-worm-pixel.png"
		}
	],
	"accessors":[
		{
			"bufferView":0,
			"componentType":5126,
			"count":63,
			"max":[
				0.11401091516017914,
				0.1555984616279602,
				0.7700092792510986
			],
			"min":[
				-0.11401091516017914,
				-0.04768320918083191,
				-0.7700092792510986
			],
			"type":"VEC3"
		},
		{
			"bufferView":1,
			"componentType":5126,
			"count":63,
			"type":"VEC3"
		},
		{
			"bufferView":2,
			"componentType":5126,
			"count":63,
			"type":"VEC2"
		},
		{
			"bufferView":3,
			"componentType":5123,
			"count":252,
			"type":"SCALAR"
		},
		{
			"componentType":5126,
			"count":63,
			"max":[
				7.450580596923828e-09,
				0.2072387933731079,
				2.9802322387695312e-08
			],
			"min":[
				-7.450580596923828e-09,
				0,
				-2.9802322387695312e-08
			],
			"sparse":{
				"count":35,
				"indices":{
					"bufferView":4,
					"componentType":5121
				},
				"values":{
					"bufferView":5
				}
			},
			"type":"VEC3"
		},
		{
			"bufferView":6,
			"componentType":5126,
			"count":63,
			"type":"VEC3"
		},
		{
			"bufferView":7,
			"componentType":5126,
			"count":800,
			"max":[
				33.333333333333336
			],
			"min":[
				0.041666666666666664
			],
			"type":"SCALAR"
		},
		{
			"bufferView":8,
			"componentType":5126,
			"count":800,
			"type":"VEC3"
		},
		{
			"bufferView":9,
			"componentType":5126,
			"count":800,
			"type":"VEC4"
		},
		{
			"bufferView":10,
			"componentType":5126,
			"count":801,
			"max":[
				33.333333333333336
			],
			"min":[
				0
			],
			"type":"SCALAR"
		},
		{
			"bufferView":11,
			"componentType":5126,
			"count":801,
			"type":"SCALAR"
		}
	],
	"bufferViews":[
		{
			"buffer":0,
			"byteLength":756,
			"byteOffset":0,
			"target":34962
		},
		{
			"buffer":0,
			"byteLength":756,
			"byteOffset":756,
			"target":34962
		},
		{
			"buffer":0,
			"byteLength":504,
			"byteOffset":1512,
			"target":34962
		},
		{
			"buffer":0,
			"byteLength":504,
			"byteOffset":2016,
			"target":34963
		},
		{
			"buffer":0,
			"byteLength":35,
			"byteOffset":2520
		},
		{
			"buffer":0,
			"byteLength":420,
			"byteOffset":2556
		},
		{
			"buffer":0,
			"byteLength":756,
			"byteOffset":2976,
			"target":34962
		},
		{
			"buffer":0,
			"byteLength":3200,
			"byteOffset":3732
		},
		{
			"buffer":0,
			"byteLength":9600,
			"byteOffset":6932
		},
		{
			"buffer":0,
			"byteLength":12800,
			"byteOffset":16532
		},
		{
			"buffer":0,
			"byteLength":3204,
			"byteOffset":29332
		},
		{
			"buffer":0,
			"byteLength":3204,
			"byteOffset":32536
		}
	],
	"samplers":[
		{
			"magFilter":9729,
			"minFilter":9987
		}
	],
	"buffers":[
		{
			"byteLength":35740,
			"uri":"worm.bin"
		}
	]
}
